<svg xmlns="http://www.w3.org/2000/svg" viewBox="0 0 1024 1024" role="img" aria-labelledby="title desc">
  <title id="title">GrooveForge app icon</title>
  <desc id="desc">A dark rounded square with a teal groove mark, gold forge mark, and beat-step grid.</desc>
  <defs>
    <linearGradient id="bg" x1="156" x2="868" y1="112" y2="912" gradientUnits="userSpaceOnUse">
      <stop offset="0" stop-color="#10141c"/>
      <stop offset="0.52" stop-color="#15252a"/>
      <stop offset="1" stop-color="#241a18"/>
    </linearGradient>
    <linearGradient id="teal" x1="210" x2="610" y1="250" y2="760" gradientUnits="userSpaceOnUse">
      <stop offset="0" stop-color="#47f0c1"/>
      <stop offset="1" stop-color="#16a985"/>
    </linearGradient>
    <linearGradient id="gold" x1="574" x2="826" y1="244" y2="738" gradientUnits="userSpaceOnUse">
      <stop offset="0" stop-color="#ffd166"/>
      <stop offset="1" stop-color="#f5a623"/>
    </linearGradient>
    <filter id="shadow" x="-20%" y="-20%" width="140%" height="140%">
      <feDropShadow dx="0" dy="32" stdDeviation="30" flood-color="#000000" flood-opacity="0.36"/>
    </filter>
  </defs>
  <rect width="872" height="872" x="76" y="76" fill="url(#bg)" filter="url(#shadow)" rx="196"/>
  <path fill="none" stroke="url(#teal)" stroke-linecap="round" stroke-width="74" d="M505 328a192 192 0 1 0 16 346"/>
  <path fill="none" stroke="#47f0c1" stroke-linecap="round" stroke-width="60" d="M430 512h190"/>
  <path fill="url(#gold)" d="M615 286h276v78H704v126h156v78H704v191h-89z"/>
  <path fill="#fff3c4" d="M744 250l35 74 80 10-59 54 15 78-71-39-70 39 14-78-58-54 80-10z" opacity="0.9"/>
  <g fill="#d8fff4" opacity="0.9">
    <rect width="46" height="92" x="213" y="742" rx="14"/>
    <rect width="46" height="138" x="287" y="696" rx="14"/>
    <rect width="46" height="72" x="361" y="762" rx="14"/>
    <rect width="46" height="118" x="435" y="716" rx="14"/>
    <rect width="46" height="82" x="509" y="752" rx="14"/>
  </g>
</svg>
